<?xml version="1.0" encoding="UTF-8" standalone="no"?>
<!-- Created with Inkscape (http://www.inkscape.org/) -->

<svg
   xmlns:dc="http://purl.org/dc/elements/1.1/"
   xmlns:cc="http://creativecommons.org/ns#"
   xmlns:rdf="http://www.w3.org/1999/02/22-rdf-syntax-ns#"
   xmlns:svg="http://www.w3.org/2000/svg"
   xmlns="http://www.w3.org/2000/svg"
   xmlns:sodipodi="http://sodipodi.sourceforge.net/DTD/sodipodi-0.dtd"
   xmlns:inkscape="http://www.inkscape.org/namespaces/inkscape"
   width="2048"
   height="2048"
   viewBox="0 0 541.86665 541.86668"
   version="1.1"
   id="svg8"
   inkscape:version="0.92.3 (2405546, 2018-03-11)"
   sodipodi:docname="icon.svg"
   inkscape:export-filename="/home/georg/Schreibtisch/icon.png"
   inkscape:export-xdpi="48.000004"
   inkscape:export-ydpi="48.000004">
  <defs
     id="defs2" />
  <sodipodi:namedview
     id="base"
     pagecolor="#ffffff"
     bordercolor="#666666"
     borderopacity="1.0"
     inkscape:pageopacity="0.0"
     inkscape:pageshadow="2"
     inkscape:zoom="0.24748737"
     inkscape:cx="608.78898"
     inkscape:cy="1634.4356"
     inkscape:document-units="mm"
     inkscape:current-layer="layer1"
     showgrid="false"
     units="px"
     inkscape:window-width="1761"
     inkscape:window-height="1104"
     inkscape:window-x="3270"
     inkscape:window-y="196"
     inkscape:window-maximized="0"
     inkscape:object-nodes="false"
     inkscape:snap-nodes="false"
     inkscape:snap-others="false" />
  <metadata
     id="metadata5">
    <rdf:RDF>
      <cc:Work
         rdf:about="">
        <dc:format>image/svg+xml</dc:format>
        <dc:type
           rdf:resource="http://purl.org/dc/dcmitype/StillImage" />
        <dc:title />
      </cc:Work>
    </rdf:RDF>
  </metadata>
  <g
     inkscape:label="Ebene 1"
     inkscape:groupmode="layer"
     id="layer1"
     transform="translate(0,244.86668)">
    <rect
       id="rect3732"
       width="541.86664"
       height="541.86664"
       x="5.6843419e-14"
       y="-244.86667"
       style="fill:#269858;fill-opacity:1;stroke-width:1.09877968" />
    <path
       style="fill:none;stroke-width:16.59044266"
       inkscape:connector-curvature="0"
       d="M 138.2098,158.7902 H 403.65688 V -106.65687 H 138.2098 Z"
       id="path3713" />
    <path
       inkscape:connector-curvature="0"
       d="m 220.22271,-18.9341 h -37.50063 c -8.25014,0 -15.00025,6.750114 -15.00025,15.0002466 V 13.166442 c -4.50005,2.625037 -7.50012,7.350121 -7.50012,12.900211 0,8.250142 6.75012,15.000256 15.00024,15.000256 8.25015,0 15.00026,-6.750114 15.00026,-15.000256 0,-5.55009 -3.00006,-10.35017 -7.50013,-12.900211 V -3.9338534 h 22.50039 V 56.067161 H 145.22144 V -3.9338534 h 15.00027 V -18.9341 H 130.2212 v 90.001507 h 90.00151 z"
       id="path3715"
       style="fill:#ffffff;fill-opacity:1;stroke-width:7.50012636"
       sodipodi:nodetypes="csscssscccccccccccc" />
    <path
       style="fill:none;stroke-width:15.25763893"
       inkscape:connector-curvature="0"
       d="M 87.841666,-157.02502 H 454.025 V 209.15832 H 87.841666 Z"
       id="path3717" />
    <path
       inkscape:connector-curvature="0"
       d="m 266.62262,71.300808 h 18.09366 v -9.046833 h 9.04683 c 4.97576,0 9.04682,-4.071074 9.04682,-9.04683 V 26.066653 c 0,-4.975756 -4.07106,-9.04683 -9.04682,-9.04683 H 266.62262 V 7.9729908 h 36.18731 V -10.120672 h -18.09365 v -9.046829 h -18.09366 v 9.046829 h -9.04683 c -4.97576,0 -9.04685,4.0710783 -9.04685,9.0468332 V 26.066653 c 0,4.97576 4.07108,9.046832 9.04685,9.046832 h 27.14049 v 9.046827 h -36.18734 v 18.093663 h 18.09368 z"
       id="path821"
       style="fill:#ffffff;fill-opacity:1;stroke-width:9.04683018"
       sodipodi:nodetypes="cccssssccccccccsssscccccc" />
    <path
       inkscape:connector-curvature="0"
       d="m 366.47287,12.514881 h -9.03452 v -31.620806 h -9.03451 v 31.620806 h -9.0345 v -31.620806 h -9.03454 v 31.620806 c 0,9.576584 7.49865,17.346271 16.93973,17.933516 v 40.790834 h 11.29314 V 30.448397 c 9.44107,-0.587245 16.93972,-8.356932 16.93972,-17.933516 v -31.620806 h -9.03452 z M 389.05916,-1.0368901 V 35.101166 h 11.29315 v 36.138065 h 11.29315 v -90.345156 c -12.46765,0 -22.5863,10.1186611 -22.5863,18.0690349 z"
       id="path837"
       style="fill:#ffffff;fill-opacity:1;stroke-width:4.51725769" />
    <rect
       style="opacity:1;fill:none;fill-opacity:1;stroke:#ffffff;stroke-width:26;stroke-linecap:round;stroke-linejoin:bevel;stroke-miterlimit:4;stroke-dasharray:none;stroke-opacity:1;paint-order:stroke fill markers"
       id="rect855"
       width="370.76941"
       height="278.10291"
       x="85.54863"
       y="-112.9848"
       ry="19.49543" />
  </g>
</svg>
