<?xml version="1.0" encoding="UTF-8" standalone="no"?>
<!-- Created with Inkscape (http://www.inkscape.org/) -->

<svg
   xmlns:dc="http://purl.org/dc/elements/1.1/"
   xmlns:cc="http://creativecommons.org/ns#"
   xmlns:rdf="http://www.w3.org/1999/02/22-rdf-syntax-ns#"
   xmlns:svg="http://www.w3.org/2000/svg"
   xmlns="http://www.w3.org/2000/svg"
   xmlns:sodipodi="http://sodipodi.sourceforge.net/DTD/sodipodi-0.dtd"
   xmlns:inkscape="http://www.inkscape.org/namespaces/inkscape"
   width="2048"
   height="2048"
   viewBox="0 0 541.86665 541.86668"
   version="1.1"
   id="svg8"
   inkscape:version="0.92.3 (2405546, 2018-03-11)"
   sodipodi:docname="icon.svg"
   inkscape:export-filename="/home/georg/Schreibtisch/icon_plain.png"
   inkscape:export-xdpi="48.000004"
   inkscape:export-ydpi="48.000004">
  <defs
     id="defs2" />
  <sodipodi:namedview
     id="base"
     pagecolor="#ffffff"
     bordercolor="#666666"
     borderopacity="1.0"
     inkscape:pageopacity="0.0"
     inkscape:pageshadow="2"
     inkscape:zoom="0.24748737"
     inkscape:cx="-524.76217"
     inkscape:cy="1452.6376"
     inkscape:document-units="mm"
     inkscape:current-layer="layer1"
     showgrid="false"
     units="px"
     inkscape:window-width="1761"
     inkscape:window-height="1104"
     inkscape:window-x="3270"
     inkscape:window-y="196"
     inkscape:window-maximized="0"
     inkscape:object-nodes="false"
     inkscape:snap-nodes="false"
     inkscape:snap-others="false" />
  <metadata
     id="metadata5">
    <rdf:RDF>
      <cc:Work
         rdf:about="">
        <dc:format>image/svg+xml</dc:format>
        <dc:type
           rdf:resource="http://purl.org/dc/dcmitype/StillImage" />
        <dc:title />
      </cc:Work>
    </rdf:RDF>
  </metadata>
  <g
     inkscape:label="Ebene 1"
     inkscape:groupmode="layer"
     id="layer1"
     transform="translate(0,244.86668)">
    <path
       style="fill:none;stroke-width:15.25763893"
       inkscape:connector-curvature="0"
       d="M 148.87222,148.12776 H 392.99445 V -95.994461 H 148.87222 Z"
       id="path3713" />
    <path
       inkscape:connector-curvature="0"
       d="m 224.8033,-13.305424 h -32.81006 c -7.21821,0 -13.12402,5.9058114 -13.12402,13.12401961 V 14.77999 c -3.93719,2.296698 -6.56201,6.43077 -6.56201,11.286656 0,7.218216 5.90582,13.124028 13.12402,13.124028 7.21822,0 13.12403,-5.905812 13.12403,-13.124028 0,-4.855886 -2.62481,-9.055573 -6.56202,-11.286656 V -0.18140439 h 19.68605 V 52.314698 H 159.18318 V -0.18140439 h 13.12403 V -13.305424 h -26.24805 v 78.744141 h 78.74414 z"
       id="path3715"
       style="fill:#ffffff;fill-opacity:1;stroke-width:6.5620122"
       sodipodi:nodetypes="csscssscccccccccccc" />
    <path
       style="fill:none;stroke-width:15.25763893"
       inkscape:connector-curvature="0"
       d="M 87.841666,-157.02502 H 454.025 V 209.15832 H 87.841666 Z"
       id="path3717" />
    <path
       inkscape:connector-curvature="0"
       d="m 267.25145,65.642924 h 15.83051 v -7.915257 h 7.91525 c 4.3534,0 7.91525,-3.561865 7.91525,-7.915255 V 26.066646 c 0,-4.35339 -3.56185,-7.915255 -7.91525,-7.915255 h -23.74576 v -7.915256 h 31.66101 V -5.5943774 h -15.8305 v -7.9152536 h -15.83051 v 7.9152536 h -7.91526 c -4.35338,0 -7.91526,3.561869 -7.91526,7.9152578 V 26.066646 c 0,4.353393 3.56187,7.915256 7.91526,7.915256 h 23.74577 v 7.915253 h -31.66103 v 15.830512 h 15.83052 z"
       id="path821"
       style="fill:#ffffff;fill-opacity:1;stroke-width:7.91525459"
       sodipodi:nodetypes="cccssssccccccccsssscccccc" />
    <path
       inkscape:connector-curvature="0"
       d="m 356.46438,14.209926 h -7.90448 v -27.665683 h -7.90448 v 27.665683 h -7.90447 v -27.665683 h -7.90449 v 27.665683 c 0,8.378748 6.56072,15.176604 14.8209,15.690396 v 35.688727 h 9.8806 V 29.900322 c 8.26019,-0.513792 14.82091,-7.311648 14.82091,-15.690396 v -27.665683 h -7.90449 z M 376.22559,2.3532076 V 33.971125 h 9.8806 v 31.617924 h 9.8806 v -79.044806 c -10.90819,0 -19.7612,8.8530215 -19.7612,15.8089646 z"
       id="path837"
       style="fill:#ffffff;fill-opacity:1;stroke-width:3.95224023" />
    <rect
       style="opacity:1;fill:none;fill-opacity:1;stroke:#ffffff;stroke-width:32;stroke-linecap:round;stroke-linejoin:bevel;stroke-miterlimit:4;stroke-dasharray:none;stroke-opacity:1;paint-order:stroke fill markers"
       id="rect855"
       width="328.91867"
       height="256.21066"
       x="106.474"
       y="-102.03869"
       ry="17.960752" />
  </g>
</svg>
