<?xml version="1.0" encoding="UTF-8" standalone="no"?>
<svg
   width="830"
   height="530"
   viewBox="0 0 219.60416 140.22917"
   version="1.1"
   id="svg8"
   inkscape:version="1.1.2 (0a00cf5339, 2022-02-04)"
   sodipodi:docname="card.svg"
   xmlns:inkscape="http://www.inkscape.org/namespaces/inkscape"
   xmlns:sodipodi="http://sodipodi.sourceforge.net/DTD/sodipodi-0.dtd"
   xmlns="http://www.w3.org/2000/svg"
   xmlns:svg="http://www.w3.org/2000/svg"
   xmlns:rdf="http://www.w3.org/1999/02/22-rdf-syntax-ns#"
   xmlns:cc="http://creativecommons.org/ns#"
   xmlns:dc="http://purl.org/dc/elements/1.1/">
  <defs
     id="defs2" />
  <sodipodi:namedview
     id="base"
     pagecolor="#ffffff"
     bordercolor="#666666"
     borderopacity="1.0"
     inkscape:pageopacity="0.0"
     inkscape:pageshadow="2"
     inkscape:zoom="0.66964644"
     inkscape:cx="301.65172"
     inkscape:cy="-3.7333134"
     inkscape:document-units="mm"
     inkscape:current-layer="layer1"
     inkscape:document-rotation="0"
     showgrid="false"
     inkscape:window-width="2084"
     inkscape:window-height="1302"
     inkscape:window-x="0"
     inkscape:window-y="25"
     inkscape:window-maximized="0"
     inkscape:pagecheckerboard="1"
     units="px"
     width="800px" />
  <metadata
     id="metadata5">
    <rdf:RDF>
      <cc:Work
         rdf:about="">
        <dc:format>image/svg+xml</dc:format>
        <dc:type
           rdf:resource="http://purl.org/dc/dcmitype/StillImage" />
      </cc:Work>
    </rdf:RDF>
  </metadata>
  <g
     inkscape:label="Ebene 1"
     inkscape:groupmode="layer"
     id="layer1">
    <text
       xml:space="preserve"
       style="font-style:normal;font-weight:normal;font-size:42.1929px;line-height:1.25;font-family:sans-serif;fill:#000005;fill-opacity:0.504344;stroke:none;stroke-width:1.05482"
       x="-146.27539"
       y="271.85199"
       id="text869-0"
       transform="rotate(-90)"><tspan
         sodipodi:role="line"
         id="tspan867-8"
         x="-146.27539"
         y="271.85199"
         style="font-style:normal;font-variant:normal;font-weight:bold;font-stretch:normal;font-size:51.6514px;font-family:'Trebuchet MS';-inkscape-font-specification:'Trebuchet MS, Bold';font-variant-ligatures:normal;font-variant-caps:normal;font-variant-numeric:normal;font-variant-east-asian:normal;fill:#000005;fill-opacity:0.504344;stroke-width:1.05482">E<tspan
   style="font-style:italic;font-variant:normal;font-weight:bold;font-stretch:normal;font-size:51.6514px;font-family:'Trebuchet MS';-inkscape-font-specification:'Trebuchet MS, Bold Italic';font-variant-ligatures:normal;font-variant-caps:normal;font-variant-numeric:normal;font-variant-east-asian:normal;fill:#000005;fill-opacity:0.504344;stroke-width:1.05482"
   id="tspan17362-1">meal</tspan></tspan></text>
    <path
       id="rect847-7"
       style="opacity:1;fill:#85bb25;stroke-width:1.98787;stroke-linecap:round;stroke-linejoin:round"
       d="M 9.8753842,0 H 209.72877 c 5.47096,0 9.8754,4.3892469 9.8754,9.8413645 V 130.38779 c 0,5.45211 -4.40444,9.84137 -9.8754,9.84137 H 9.8753842 C 4.404421,140.22916 0,135.8399 0,130.38779 V 9.8413645 C 0,4.3892469 4.404421,0 9.8753842,0 Z" />
    <path
       id="rect847"
       style="opacity:0.80794;fill:#ffffff;fill-opacity:0.503547;stroke-width:1.98787;stroke-linecap:round;stroke-linejoin:round"
       d="m 180.84863,8.93e-5 v 4.0635101 l 24.03108,5.0300351 c 3.83357,0.800773 6.77135,1.2013535 8.8137,1.2013535 1.57359,0 2.85423,-0.4338295 3.84191,-1.3013405 0.78668,-0.6909741 1.24601,-1.5921109 1.40616,-2.685253 -0.56726,-1.4754653 -1.47767,-2.7743941 -2.63792,-3.8066135 -0.12705,0.2541281 -0.27719,0.4956749 -0.47543,0.7111758 -0.56917,0.6005727 -1.33922,0.9008888 -2.31017,0.9008888 -1.52339,0 -4.06817,-0.3668248 -7.6339,-1.1008614 L 191.2522,8.93e-5 Z m 11.77682,15.4495387 c -0.83704,2.001939 -1.25544,5.263674 -1.25544,9.784717 0,4.687876 1.82452,8.575036 5.47396,11.661366 3.63269,3.06964 8.002,4.60446 13.10786,4.60446 2.92959,0 5.21486,-0.792737 6.85544,-2.377605 1.64057,-1.601546 2.46094,-3.853625 2.46094,-6.756443 0,-3.18642 -1.06294,-5.847007 -3.189,-7.982418 1.79125,-0.567215 2.68681,-1.434894 2.68681,-2.602702 v -3.903524 c -1.37271,0.567214 -3.90055,0.850643 -7.58346,0.850643 -0.75332,0 -1.43971,-0.05854 -2.0591,-0.175364 z m 4.36928,6.982054 c 6.98079,1.051022 11.58473,2.252268 13.81122,3.603575 2.22646,1.334621 3.33972,2.90269 3.33972,4.704436 0,2.83608 -1.44849,4.254244 -4.34461,4.254244 -3.49876,0 -6.58694,-0.83442 -9.26542,-2.502702 -2.69522,-1.668294 -4.0431,-3.903484 -4.0431,-6.706196 0,-1.051022 0.16737,-2.16888 0.50219,-3.353357 z m 1.30584,21.495823 c -2.22649,0 -3.93396,0.875608 -5.12254,2.627307 -1.20532,1.7517 -1.80802,4.037544 -1.80802,6.856945 0,4.787972 1.54011,8.666691 4.62038,11.636246 3.06351,2.952856 6.90534,4.429095 11.52572,4.429095 3.64943,0 6.52046,-1.026029 8.61302,-3.078015 2.09257,-2.051985 3.13908,-4.72947 3.13908,-8.032669 0,-3.052961 -0.47719,-5.638605 -1.4314,-7.757329 l -6.60433,-0.726038 c 0.71982,0.784083 1.37284,1.860249 1.95875,3.228235 0.56919,1.367998 0.8536,2.577687 0.8536,3.628699 0,1.968581 -0.50208,3.511834 -1.50652,4.629584 -1.00444,1.101059 -2.44393,1.651554 -4.31885,1.651554 -0.31808,0 -0.69464,-0.01687 -1.12988,-0.05031 0.61938,-1.785058 0.9287,-3.61174 0.9287,-5.480215 0,-3.820377 -0.8617,-7.031973 -2.58596,-9.634494 -1.72429,-2.619201 -4.1017,-3.928647 -7.13175,-3.928647 z m 0.47697,6.20576 c 1.30575,0 2.31043,0.784282 3.01353,2.352471 0.68637,1.568187 1.02953,3.486701 1.02953,5.755566 0,1.267893 -0.15888,2.444332 -0.47695,3.528712 -1.64057,-0.734035 -3.00536,-1.752126 -4.09349,-3.053397 -1.10489,-1.30126 -1.65727,-2.577457 -1.65727,-3.82867 0,-3.169745 0.72822,-4.754682 2.18465,-4.754682 z m -0.0752,22.421836 c -4.88822,0 -7.33239,2.677991 -7.33239,8.033186 0,3.219792 0.96284,5.888823 2.88799,8.007547 -1.92515,1.468093 -2.88799,3.970339 -2.88799,7.507099 0,3.019601 0.78701,5.538737 2.36061,7.557347 -0.77006,0.15015 -1.58195,0.33383 -2.43572,0.55071 l 1.07946,6.1309 c 1.57361,-0.46714 3.18893,-0.70042 4.84625,-0.70042 0.9542,0 1.65753,0.0417 2.10952,0.1251 l 19.43589,3.62819 v -6.38111 l -19.23523,-3.57846 c -0.77006,-0.60058 -1.44797,-1.40124 -2.03391,-2.40221 -0.60264,-1.01765 -0.90398,-1.927016 -0.90398,-2.727795 0,-2.652572 0.87066,-3.978917 2.61169,-3.978917 0.21761,0 0.41835,0.01697 0.60249,0.05031 l 18.95894,3.553329 v -6.40625 l -19.3104,-3.578453 c -0.7031,-0.500477 -1.35611,-1.259448 -1.95879,-2.277103 -0.60264,-1.017653 -0.90398,-1.960274 -0.90398,-2.827785 0,-2.452377 1.16354,-3.678437 3.49047,-3.678437 0.60266,0 1.17199,0.04961 1.7077,0.149725 l 16.97495,3.178508 v -6.406247 l -17.62788,-3.278493 c -0.90401,-0.166833 -1.7159,-0.250219 -2.43575,-0.250219 z M 181.97846,116.09745 V 139.495 h 31.50085 c 2.36436,-0.96333 4.26118,-2.81076 5.28665,-5.13565 v -17.98656 h -5.80065 v 16.61599 h -11.02356 v -12.11153 h -5.54958 v 12.11153 h -8.61303 v -16.89133 z" />
    <path
       style="fill:none;fill-opacity:0.504344;stroke:#fffffe;stroke-width:0.993935;stroke-linecap:round;stroke-linejoin:round;stroke-miterlimit:4;stroke-dasharray:none;stroke-opacity:0.896609;paint-order:normal"
       d="m 35.76662,20.0803 c 2.372539,2.584903 1.04754,8.155607 -3.457323,7.539688 -6.577284,-1.130851 -4.929464,-11.100537 0.451502,-11.535796 3.334518,-0.317366 5.869148,2.118014 5.869148,2.118014 0,0 -1.249324,-7.814814 4.66628,-8.5453675 7.443869,-0.8683103 8.553232,9.6536965 5.451483,10.0103395 l 6.061162,6.949926 c -6.220912,0.462384 -11.001099,6.119984 -11.495187,9.240802"
       id="path19965"
       sodipodi:nodetypes="cccccccc" />
    <path
       style="fill:none;stroke:#fffffe;stroke-width:0.894543;stroke-linecap:round;stroke-linejoin:round;stroke-miterlimit:4;stroke-dasharray:none;stroke-opacity:0.896609"
       d="m 43.923369,44.072741 c 0,0 -3.722457,-3.396749 -1.601435,-4.993322 1.580513,-1.282485 3.034318,1.316176 3.034318,1.316176"
       id="path22489"
       sodipodi:nodetypes="ccc" />
    <path
       style="fill:none;stroke:#fffffe;stroke-width:0.993935;stroke-linecap:round;stroke-linejoin:round;stroke-miterlimit:4;stroke-dasharray:none;stroke-opacity:0.896609"
       d="m 45.851936,37.805431 c 1.526694,-5.293692 6.349614,-7.948869 10.965897,-8.869323 0.64481,2.727283 6.107118,7.840155 6.415894,10.642118 0.871119,3.103378 -1.949831,7.944145 -1.815862,11.724612 -1.758115,2.108244 -7.285581,1.129582 -8.814402,0.632576 -0.0683,1.136128 0.810931,2.149202 0.810931,2.149202"
       id="path22491"
       sodipodi:nodetypes="cccccc" />
    <path
       style="fill:none;stroke:#fffffe;stroke-width:0.894543;stroke-linecap:round;stroke-linejoin:round;stroke-miterlimit:4;stroke-dasharray:none;stroke-opacity:0.896609"
       d="m 62.272047,55.813973 c -0.610861,-1.219828 -1.160744,-3.683795 -0.854182,-4.511135 0,0 1.180281,-2.016102 2.082661,-2.010294 l 0.07234,2.220336"
       id="path22493"
       sodipodi:nodetypes="cccc" />
    <path
       style="fill:none;stroke:#fffffe;stroke-width:0.993935;stroke-linecap:round;stroke-linejoin:round;stroke-miterlimit:4;stroke-dasharray:none;stroke-opacity:0.896609"
       d="M 50.731285,52.686919 C 38.504,55.840521 30.574133,68.70135 30.814158,75.675842 c -0.0516,8.346023 5.880357,10.981792 9.244661,10.641774 4.263999,-0.38456 5.987717,-3.601503 5.918078,-5.472931 -0.144423,-4.040909 -2.788415,-6.656812 -7.475572,-5.254425"
       id="path22530"
       sodipodi:nodetypes="ccccc" />
    <path
       style="fill:none;stroke:#fffffe;stroke-width:0.993935;stroke-linecap:round;stroke-linejoin:round;stroke-miterlimit:4;stroke-dasharray:none;stroke-opacity:0.896609"
       d="m 86.276466,44.258282 c 6.22195,-6.521434 21.518874,-4.006202 21.867354,6.369827"
       id="path22532"
       sodipodi:nodetypes="cc" />
    <path
       style="fill:none;stroke:#fffffe;stroke-width:0.894543;stroke-linecap:round;stroke-linejoin:round;stroke-miterlimit:4;stroke-dasharray:none;stroke-opacity:0.896609"
       d="m 110.77583,49.457744 c 0,0 3.64832,0.331025 3.69907,1.047936 -2.99093,1.575333 -26.042766,0.813411 -32.341302,0.963928"
       id="path22534"
       sodipodi:nodetypes="ccc" />
    <path
       style="fill:none;stroke:#fffffe;stroke-width:0.894543;stroke-linecap:round;stroke-linejoin:round;stroke-miterlimit:4;stroke-dasharray:none;stroke-opacity:0.896609"
       d="m 84.856817,52.566375 c 5.128149,0.749341 16.646743,0.665737 21.765633,0.03778"
       id="path22536"
       sodipodi:nodetypes="cc" />
    <path
       style="fill:none;stroke:#fffffe;stroke-width:0.894543;stroke-linecap:round;stroke-linejoin:round;stroke-miterlimit:4;stroke-dasharray:none;stroke-opacity:0.896609"
       d="m 99.748367,38.21872 c -3.587476,-2.66002 -0.0846,-5.505266 -0.0845,-10.214233"
       id="path22538"
       sodipodi:nodetypes="cc" />
    <path
       style="fill:none;stroke:#fffffe;stroke-width:0.894543;stroke-linecap:round;stroke-linejoin:round;stroke-miterlimit:4;stroke-dasharray:none;stroke-opacity:0.896609"
       d="m 94.613147,34.288207 c -1.424263,-2.17258 2.36643,-6.956276 1.515526,-9.717084"
       id="path22540"
       sodipodi:nodetypes="cc" />
    <path
       style="fill:none;stroke:#fffffe;stroke-width:0.894543;stroke-linecap:round;stroke-linejoin:round;stroke-miterlimit:4;stroke-dasharray:none;stroke-opacity:0.896609"
       d="m 89.439303,36.000988 c -1.053041,-3.242561 4.081469,-6.176802 4.39755,-9.478389"
       id="path22542"
       sodipodi:nodetypes="cc" />
  </g>
</svg>
